<?xml version="1.0" encoding="utf-8"?>
<svg viewBox="176.314 63.955 187.301 370.898" xmlns="http://www.w3.org/2000/svg">
  <g id="surface1" transform="matrix(1, 0, 0, 1, -124.385361, -30.045162)">
    <path style=" stroke:none;fill-rule:evenodd;fill:rgb(9.812927%,9.812927%,14.109802%);fill-opacity:1;" d="M 443.800781 284.300781 L 305 437.199219 L 304.699219 437.5 L 304.5 437.800781 L 304.199219 438.199219 L 303.898438 438.5 L 303.699219 438.898438 L 303.398438 439.199219 L 303.199219 439.601563 L 303 440 L 302.800781 440.300781 L 302.601563 440.699219 L 302.398438 441.101563 L 302 441.898438 L 301.898438 442.300781 L 301.699219 442.699219 L 301.601563 443.101563 L 301.398438 443.5 L 301.300781 444 L 301.199219 444.398438 L 301.101563 444.800781 L 301 445.199219 L 300.898438 445.699219 L 300.898438 446.101563 L 300.800781 446.5 L 300.800781 447.398438 L 300.699219 447.800781 L 300.699219 449.101563 L 300.800781 449.601563 L 300.800781 450 L 300.898438 450.398438 L 300.898438 450.800781 L 301 451.300781 L 301.101563 451.699219 L 301.199219 452.101563 L 301.300781 452.5 L 301.398438 453 L 301.5 453.398438 L 301.699219 453.800781 L 301.800781 454.199219 L 302 454.601563 L 302.101563 455 L 302.300781 455.398438 L 302.5 455.800781 L 302.699219 456.199219 L 302.898438 456.601563 L 303.101563 456.898438 L 303.398438 457.300781 L 303.601563 457.699219 L 303.898438 458 L 304.101563 458.398438 L 304.398438 458.699219 L 304.699219 459 L 304.898438 459.398438 L 305.800781 460.300781 L 306.199219 460.601563 L 306.5 460.898438 L 306.800781 461.199219 L 307.199219 461.398438 L 307.5 461.699219 L 307.898438 462 L 308.199219 462.199219 L 308.601563 462.398438 L 309 462.699219 L 309.300781 462.898438 L 309.699219 463.101563 L 310.101563 463.300781 L 310.5 463.5 L 310.898438 463.601563 L 311.300781 463.800781 L 311.699219 463.898438 L 312.101563 464.101563 L 312.5 464.199219 L 313 464.300781 L 313.398438 464.398438 L 313.800781 464.5 L 314.199219 464.601563 L 314.699219 464.699219 L 315.101563 464.800781 L 315.5 464.800781 L 315.898438 464.898438 L 318.601563 464.898438 L 319 464.800781 L 319.398438 464.800781 L 319.800781 464.699219 L 320.300781 464.699219 L 320.699219 464.601563 L 321.101563 464.5 L 321.5 464.398438 L 322 464.300781 L 322.398438 464.101563 L 322.800781 464 L 323.199219 463.800781 L 323.601563 463.699219 L 324.398438 463.300781 L 324.800781 463.101563 L 325.199219 462.898438 L 325.601563 462.699219 L 325.898438 462.5 L 326.300781 462.300781 L 326.699219 462 L 327 461.800781 L 327.398438 461.5 L 327.699219 461.300781 L 328 461 L 328.398438 460.699219 L 328.699219 460.398438 L 329 460.101563 L 329.601563 459.5 L 484.300781 289.199219 L 484.398438 289 L 484.5 288.898438 L 484.601563 288.800781 L 484.699219 288.601563 L 485.199219 288.101563 L 485.300781 287.898438 L 485.398438 287.800781 L 485.5 287.601563 L 485.601563 287.5 L 485.699219 287.300781 L 485.800781 287.199219 L 485.898438 287 L 486 286.898438 L 486 286.699219 L 486.101563 286.601563 L 486.199219 286.398438 L 486.300781 286.300781 L 486.398438 286.101563 L 486.5 286 L 486.5 285.800781 L 486.601563 285.601563 L 486.699219 285.5 L 486.800781 285.300781 L 486.800781 285.199219 L 486.898438 285 L 487 284.800781 L 487 284.699219 L 487.101563 284.5 L 487.199219 284.300781 L 487.199219 284.199219 L 487.300781 284 L 487.300781 283.800781 L 487.398438 283.699219 L 487.398438 283.5 L 487.5 283.300781 L 487.5 283.199219 L 487.601563 283 L 487.601563 282.800781 L 487.699219 282.601563 L 487.699219 282.300781 L 487.800781 282.101563 L 487.800781 281.800781 L 487.898438 281.601563 L 487.898438 280.898438 L 488 280.699219 L 488 278.199219 L 487.898438 278.101563 L 487.898438 277.398438 L 487.800781 277.199219 L 487.800781 276.800781 L 487.699219 276.699219 L 487.699219 276.300781 L 487.601563 276.101563 L 487.601563 276 L 487.5 275.800781 L 487.5 275.601563 L 487.398438 275.5 L 487.398438 275.300781 L 487.300781 275.101563 L 487.300781 275 L 487.199219 274.800781 L 487.199219 274.601563 L 487.101563 274.5 L 487 274.300781 L 487 274.101563 L 486.898438 274 L 486.800781 273.800781 L 486.800781 273.601563 L 486.699219 273.5 L 486.601563 273.300781 L 486.5 273.199219 L 486.5 273 L 486.398438 272.800781 L 486.300781 272.699219 L 486.199219 272.5 L 486.101563 272.398438 L 486 272.199219 L 486 272.101563 L 485.898438 271.898438 L 485.800781 271.800781 L 485.699219 271.601563 L 485.601563 271.5 L 485.5 271.300781 L 485.398438 271.199219 L 485.300781 271 L 485.199219 270.898438 L 485.101563 270.699219 L 485 270.601563 L 484.800781 270.5 L 484.699219 270.300781 L 484.601563 270.199219 L 484.5 270.101563 L 484.398438 269.898438 L 484.300781 269.800781 L 329.601563 99.5 L 329.300781 99.199219 L 329 98.800781 L 328.699219 98.5 L 328.398438 98.300781 L 328 98 L 327.398438 97.398438 L 327 97.199219 L 326.699219 96.898438 L 326.300781 96.699219 L 325.898438 96.398438 L 325.601563 96.199219 L 325.199219 96 L 324.800781 95.800781 L 324.398438 95.601563 L 324 95.398438 L 323.601563 95.300781 L 323.199219 95.101563 L 322.800781 95 L 322.398438 94.800781 L 322 94.699219 L 321.5 94.601563 L 321.101563 94.5 L 320.699219 94.398438 L 320.300781 94.300781 L 319.800781 94.199219 L 319.398438 94.199219 L 319 94.101563 L 318.101563 94.101563 L 317.699219 94 L 316.800781 94 L 316.398438 94.101563 L 315.5 94.101563 L 315.101563 94.199219 L 314.699219 94.300781 L 314.199219 94.300781 L 313.800781 94.398438 L 313.398438 94.5 L 313 94.601563 L 312.5 94.699219 L 312.101563 94.898438 L 311.699219 95 L 311.300781 95.199219 L 310.898438 95.300781 L 310.101563 95.699219 L 309.699219 95.898438 L 309.300781 96.101563 L 309 96.300781 L 308.601563 96.5 L 308.199219 96.800781 L 307.898438 97 L 307.5 97.199219 L 307.199219 97.5 L 306.800781 97.800781 L 306.5 98.101563 L 306.199219 98.300781 L 305.800781 98.601563 L 305.5 98.898438 L 305.199219 99.300781 L 304.898438 99.601563 L 304.699219 99.898438 L 304.398438 100.199219 L 304.101563 100.601563 L 303.898438 100.898438 L 303.601563 101.300781 L 303.398438 101.699219 L 303.101563 102 L 302.898438 102.398438 L 302.699219 102.800781 L 302.5 103.199219 L 302.300781 103.601563 L 302.101563 103.898438 L 302 104.300781 L 301.800781 104.800781 L 301.699219 105.199219 L 301.5 105.601563 L 301.398438 106 L 301.300781 106.398438 L 301.199219 106.800781 L 301.101563 107.300781 L 301 107.699219 L 300.898438 108.101563 L 300.898438 108.5 L 300.800781 109 L 300.800781 109.398438 L 300.699219 109.800781 L 300.699219 111.101563 L 300.800781 111.601563 L 300.800781 112.398438 L 300.898438 112.898438 L 300.898438 113.300781 L 301 113.699219 L 301.101563 114.199219 L 301.199219 114.601563 L 301.300781 115 L 301.398438 115.398438 L 301.601563 115.800781 L 301.699219 116.199219 L 301.898438 116.601563 L 302 117 L 302.199219 117.398438 L 302.398438 117.800781 L 302.601563 118.199219 L 302.800781 118.601563 L 303.199219 119.398438 L 303.398438 119.699219 L 303.699219 120.101563 L 303.898438 120.398438 L 304.199219 120.800781 L 304.5 121.101563 L 304.699219 121.5 L 305 121.800781 L 443.800781 274.601563 L 443.898438 274.699219 L 443.898438 274.800781 L 444 274.800781 L 444.101563 274.898438 L 444.101563 275 L 444.199219 275 L 444.199219 275.101563 L 444.300781 275.199219 L 444.300781 275.300781 L 444.398438 275.300781 L 444.398438 275.398438 L 444.601563 275.601563 L 444.601563 275.699219 L 444.699219 275.800781 L 444.800781 275.898438 L 444.800781 276.101563 L 445 276.300781 L 445 276.5 L 445.101563 276.601563 L 445.101563 276.699219 L 445.199219 276.800781 L 445.199219 277 L 445.300781 277 L 445.300781 277.199219 L 445.398438 277.300781 L 445.398438 277.601563 L 445.5 277.601563 L 445.5 278 L 445.601563 278.101563 L 445.601563 278.601563 L 445.699219 278.699219 L 445.699219 280.300781 L 445.601563 280.398438 L 445.601563 280.898438 L 445.5 281 L 445.5 281.300781 L 445.398438 281.398438 L 445.398438 281.699219 L 445.300781 281.699219 L 445.300781 281.898438 L 445.199219 282 L 445.199219 282.199219 L 445.101563 282.199219 L 445.101563 282.398438 L 445 282.5 L 445 282.601563 L 444.898438 282.699219 L 444.898438 282.800781 L 444.800781 282.898438 L 444.800781 283 L 444.699219 283.101563 L 444.699219 283.199219 L 444.601563 283.300781 L 444.5 283.398438 L 444.5 283.5 L 444.300781 283.699219 L 444.300781 283.800781 L 444.199219 283.800781 L 444.199219 283.898438 L 444.101563 284 L 444 284.101563 L 443.898438 284.199219 L 443.898438 284.300781 L 443.800781 284.300781 "/>
  </g>
</svg>