<?xml version="1.0" encoding="utf-8"?>
<svg viewBox="156.052 42.797 187.301 370.902" xmlns="http://www.w3.org/2000/svg">
  <g id="surface1" transform="matrix(1, 0, 0, 1, -140.846802, -75.902466)">
    <path style=" stroke:none;fill-rule:evenodd;fill:rgb(9.812927%,9.812927%,14.109802%);fill-opacity:1;" d="M 341.101563 309 L 479.898438 461.800781 L 480.101563 462.199219 L 480.398438 462.5 L 480.699219 462.800781 L 481 463.199219 L 481.199219 463.5 L 481.5 463.898438 L 481.699219 464.300781 L 481.898438 464.601563 L 482.101563 465 L 482.300781 465.398438 L 482.5 465.800781 L 482.699219 466.199219 L 482.898438 466.601563 L 483 467 L 483.199219 467.398438 L 483.300781 467.800781 L 483.5 468.199219 L 483.601563 468.601563 L 483.699219 469.101563 L 483.800781 469.5 L 483.898438 469.898438 L 484 470.300781 L 484 470.800781 L 484.101563 471.199219 L 484.101563 472.101563 L 484.199219 472.5 L 484.199219 473.800781 L 484.101563 474.199219 L 484.101563 474.699219 L 484 475.101563 L 484 475.5 L 483.898438 476 L 483.800781 476.398438 L 483.699219 476.800781 L 483.601563 477.199219 L 483.5 477.601563 L 483.398438 478.101563 L 483.199219 478.5 L 483.101563 478.898438 L 482.898438 479.300781 L 482.800781 479.699219 L 482.601563 480.101563 L 482.398438 480.5 L 482.199219 480.898438 L 482 481.199219 L 481.800781 481.601563 L 481.5 482 L 481.300781 482.300781 L 481 482.699219 L 480.800781 483 L 480.5 483.398438 L 480.199219 483.699219 L 480 484.101563 L 479.699219 484.398438 L 479.398438 484.699219 L 479 485 L 478.101563 485.898438 L 477.699219 486.101563 L 477.398438 486.398438 L 477 486.601563 L 476.699219 486.898438 L 476.300781 487.101563 L 475.898438 487.300781 L 475.601563 487.601563 L 475.199219 487.800781 L 474.800781 488 L 474.398438 488.101563 L 473.601563 488.5 L 473.199219 488.601563 L 472.800781 488.800781 L 472.398438 488.898438 L 471.898438 489 L 471.5 489.101563 L 471.101563 489.199219 L 470.699219 489.300781 L 470.199219 489.398438 L 469.800781 489.398438 L 469.398438 489.5 L 468.898438 489.5 L 468.5 489.601563 L 466.300781 489.601563 L 465.898438 489.5 L 465.5 489.5 L 465 489.398438 L 464.601563 489.300781 L 464.199219 489.199219 L 463.800781 489.199219 L 463.300781 489 L 462.898438 488.898438 L 462.5 488.800781 L 462.101563 488.699219 L 461.699219 488.5 L 461.300781 488.398438 L 460.898438 488.199219 L 460.101563 487.800781 L 459.699219 487.601563 L 459.300781 487.398438 L 459 487.199219 L 458.601563 487 L 458.199219 486.699219 L 457.898438 486.5 L 457.5 486.199219 L 457.199219 485.898438 L 456.800781 485.699219 L 456.5 485.398438 L 456.199219 485.101563 L 455.898438 484.800781 L 455.601563 484.5 L 455.300781 484.199219 L 300.601563 313.800781 L 300.5 313.699219 L 300.398438 313.601563 L 300.300781 313.398438 L 300.199219 313.300781 L 300.101563 313.199219 L 299.898438 313 L 299.800781 312.898438 L 299.699219 312.699219 L 299.5 312.5 L 299.398438 312.300781 L 299.300781 312.199219 L 299.199219 312 L 299.101563 311.898438 L 299 311.699219 L 298.898438 311.601563 L 298.898438 311.398438 L 298.800781 311.300781 L 298.699219 311.101563 L 298.601563 311 L 298.398438 310.601563 L 298.398438 310.5 L 298.300781 310.300781 L 298.199219 310.199219 L 298.101563 310 L 298.101563 309.800781 L 298 309.699219 L 297.898438 309.5 L 297.898438 309.300781 L 297.800781 309.199219 L 297.699219 309 L 297.699219 308.800781 L 297.601563 308.699219 L 297.601563 308.5 L 297.5 308.300781 L 297.5 308.199219 L 297.398438 308 L 297.398438 307.800781 L 297.300781 307.699219 L 297.300781 307.5 L 297.199219 307.300781 L 297.199219 307 L 297.101563 306.800781 L 297.101563 306.398438 L 297 306.300781 L 297 305.601563 L 296.898438 305.398438 L 296.898438 302.898438 L 297 302.699219 L 297 302 L 297.101563 301.898438 L 297.101563 301.5 L 297.199219 301.300781 L 297.199219 301 L 297.300781 300.800781 L 297.300781 300.699219 L 297.398438 300.5 L 297.398438 300.300781 L 297.5 300.101563 L 297.5 300 L 297.601563 299.800781 L 297.601563 299.601563 L 297.699219 299.5 L 297.699219 299.300781 L 297.800781 299.101563 L 297.898438 299 L 297.898438 298.800781 L 298 298.601563 L 298.101563 298.5 L 298.101563 298.300781 L 298.199219 298.199219 L 298.300781 298 L 298.398438 297.800781 L 298.398438 297.699219 L 298.5 297.5 L 298.601563 297.398438 L 298.699219 297.199219 L 298.800781 297.101563 L 298.898438 296.898438 L 298.898438 296.699219 L 299 296.601563 L 299.101563 296.398438 L 299.199219 296.300781 L 299.300781 296.101563 L 299.398438 296 L 299.5 295.898438 L 299.601563 295.699219 L 299.699219 295.601563 L 299.800781 295.398438 L 299.898438 295.300781 L 300.101563 295.199219 L 300.199219 295 L 300.300781 294.898438 L 300.398438 294.699219 L 300.5 294.601563 L 300.601563 294.5 L 455.300781 124.199219 L 455.601563 123.800781 L 455.898438 123.5 L 456.5 122.898438 L 456.800781 122.601563 L 457.199219 122.398438 L 457.5 122.101563 L 457.898438 121.800781 L 458.199219 121.601563 L 458.601563 121.398438 L 459 121.101563 L 459.300781 120.898438 L 459.699219 120.699219 L 460.101563 120.5 L 460.898438 120.101563 L 461.300781 120 L 461.699219 119.800781 L 462.101563 119.601563 L 462.898438 119.398438 L 463.300781 119.300781 L 463.800781 119.199219 L 464.199219 119.101563 L 464.601563 119 L 465 118.898438 L 465.5 118.898438 L 465.898438 118.800781 L 466.300781 118.800781 L 466.800781 118.699219 L 468.5 118.699219 L 468.898438 118.800781 L 469.398438 118.800781 L 469.800781 118.898438 L 470.199219 118.898438 L 470.699219 119 L 471.101563 119.101563 L 471.5 119.199219 L 471.898438 119.300781 L 472.398438 119.398438 L 472.800781 119.601563 L 473.199219 119.699219 L 473.601563 119.800781 L 474.398438 120.199219 L 474.800781 120.398438 L 475.199219 120.601563 L 475.601563 120.800781 L 475.898438 121 L 476.300781 121.199219 L 476.699219 121.398438 L 477 121.699219 L 477.398438 121.898438 L 477.699219 122.199219 L 478.101563 122.5 L 478.398438 122.699219 L 479 123.300781 L 479.398438 123.601563 L 479.699219 123.898438 L 480 124.300781 L 480.199219 124.601563 L 480.5 124.898438 L 480.800781 125.300781 L 481 125.601563 L 481.300781 126 L 481.5 126.300781 L 481.800781 126.699219 L 482 127.101563 L 482.199219 127.5 L 482.398438 127.800781 L 482.601563 128.199219 L 482.800781 128.601563 L 482.898438 129 L 483.101563 129.398438 L 483.199219 129.800781 L 483.398438 130.300781 L 483.5 130.699219 L 483.601563 131.101563 L 483.699219 131.5 L 483.800781 131.898438 L 483.898438 132.398438 L 484 132.800781 L 484 133.199219 L 484.101563 133.601563 L 484.101563 134.101563 L 484.199219 134.5 L 484.199219 135.800781 L 484.101563 136.300781 L 484.101563 137.101563 L 484 137.601563 L 484 138 L 483.898438 138.398438 L 483.800781 138.800781 L 483.699219 139.300781 L 483.601563 139.699219 L 483.5 140.101563 L 483.300781 140.5 L 483.199219 140.898438 L 483 141.300781 L 482.898438 141.699219 L 482.699219 142.101563 L 482.300781 142.898438 L 482.101563 143.300781 L 481.898438 143.699219 L 481.699219 144 L 481.5 144.398438 L 481.199219 144.800781 L 481 145.101563 L 480.699219 145.5 L 480.398438 145.800781 L 480.101563 146.101563 L 479.898438 146.5 L 341.101563 299.300781 L 341 299.398438 L 340.898438 299.5 L 340.800781 299.601563 L 340.800781 299.699219 L 340.699219 299.699219 L 340.699219 299.800781 L 340.5 300 L 340.5 300.101563 L 340.398438 300.199219 L 340.300781 300.300781 L 340.300781 300.398438 L 340.199219 300.5 L 340.101563 300.601563 L 340.101563 300.699219 L 340 300.800781 L 340 300.898438 L 339.898438 301 L 339.898438 301.199219 L 339.800781 301.199219 L 339.800781 301.300781 L 339.699219 301.398438 L 339.699219 301.601563 L 339.601563 301.601563 L 339.601563 301.898438 L 339.5 302 L 339.5 302.199219 L 339.398438 302.300781 L 339.398438 302.699219 L 339.300781 302.800781 L 339.300781 303.300781 L 339.199219 303.398438 L 339.199219 305 L 339.300781 305 L 339.300781 305.601563 L 339.398438 305.699219 L 339.398438 306 L 339.5 306.101563 L 339.5 306.300781 L 339.601563 306.398438 L 339.601563 306.699219 L 339.699219 306.800781 L 339.699219 306.898438 L 339.800781 307 L 339.800781 307.101563 L 339.898438 307.199219 L 339.898438 307.300781 L 340 307.398438 L 340 307.601563 L 340.101563 307.601563 L 340.101563 307.699219 L 340.199219 307.800781 L 340.199219 307.898438 L 340.300781 307.898438 L 340.300781 308 L 340.398438 308.101563 L 340.398438 308.199219 L 340.5 308.199219 L 340.5 308.300781 L 340.601563 308.398438 L 340.601563 308.5 L 340.699219 308.5 L 340.699219 308.601563 L 340.800781 308.699219 L 340.898438 308.800781 L 340.898438 308.898438 L 341 308.898438 L 341.101563 309 "/>
  </g>
</svg>